<?xml version="1.0" encoding="utf-8"?>
<!-- Generator: Adobe Illustrator 15.0.0, SVG Export Plug-In . SVG Version: 6.00 Build 0)  -->
<!DOCTYPE svg PUBLIC "-//W3C//DTD SVG 1.1//EN" "http://www.w3.org/Graphics/SVG/1.1/DTD/svg11.dtd" [
	<!ENTITY ns_extend "http://ns.adobe.com/Extensibility/1.0/">
	<!ENTITY ns_ai "http://ns.adobe.com/AdobeIllustrator/10.0/">
	<!ENTITY ns_graphs "http://ns.adobe.com/Graphs/1.0/">
	<!ENTITY ns_vars "http://ns.adobe.com/Variables/1.0/">
	<!ENTITY ns_imrep "http://ns.adobe.com/ImageReplacement/1.0/">
	<!ENTITY ns_sfw "http://ns.adobe.com/SaveForWeb/1.0/">
	<!ENTITY ns_custom "http://ns.adobe.com/GenericCustomNamespace/1.0/">
	<!ENTITY ns_adobe_xpath "http://ns.adobe.com/XPath/1.0/">
]>
<svg version="1.1" id="Calque_1" xmlns:x="&ns_extend;" xmlns:i="&ns_ai;" xmlns:graph="&ns_graphs;"
	 xmlns="http://www.w3.org/2000/svg" xmlns:xlink="http://www.w3.org/1999/xlink" x="0px" y="0px" width="56px" height="56px"
	 viewBox="0 0 56 56" enable-background="new 0 0 56 56" xml:space="preserve">
<metadata>
	<sfw  xmlns="&ns_sfw;">
		<slices></slices>
		<sliceSourceBounds  x="14.02" y="-47.324" width="27.961" height="38.648" bottomLeftOrigin="true"></sliceSourceBounds>
	</sfw>
</metadata>
<g>
	<path fill="#010101" d="M20.821,16.581l6.89-6.89l0.981-0.981c-0.222-0.018-0.444-0.034-0.671-0.034
		c-0.252,0-0.5,0.016-0.747,0.038l-1.249,1.249l-4.934,4.935l-1.249,1.248c-0.022,0.246-0.038,0.493-0.038,0.744
		c0,0.228,0.016,0.451,0.034,0.674L20.821,16.581z"/>
	<path fill="#010101" d="M18.801,28.602l2.383-2.382c-1.111,0.375-2.137,0.931-3.047,1.633c-0.723,0.557-1.37,1.203-1.926,1.926
		c-0.702,0.911-1.258,1.937-1.633,3.048l2.383-2.383L18.801,28.602z"/>
	<path fill="#010101" d="M22.778,23.211c0.259,0.216,0.536,0.41,0.821,0.593l0.729-0.729l9.878-9.879l0.729-0.729
		c-0.184-0.285-0.378-0.562-0.594-0.82l-0.714,0.713L23.492,22.497L22.778,23.211z"/>
	<path fill="#010101" d="M35.297,20.692l-3.474,3.473C33.307,23.389,34.521,22.175,35.297,20.692z"/>
	<path fill="#010101" d="M31.729,25.674c-0.075-0.002-0.149-0.012-0.226-0.012h-1.178l-1,1L15.02,40.97l-1,1v1.414l1-1L30.74,26.662
		L31.729,25.674z"/>
	<path fill="#010101" d="M38.79,28.612c-0.241-0.231-0.491-0.452-0.753-0.66l-0.713,0.713L20.509,45.479l-0.844,0.844
		c0.396,0.083,0.792,0.165,1.179,0.236l0.864-0.864L38.083,29.32L38.79,28.612z"/>
	<path fill="#010101" d="M41.821,34.167l-0.876,0.877L29.678,46.312l-1.008,1.008c0.084,0.001,0.173,0.005,0.256,0.005
		c0.402,0,0.789-0.01,1.174-0.021l1.047-1.048l9.872-9.872l0.962-0.962C41.95,34.997,41.9,34.577,41.821,34.167z"/>
	<path fill="#010101" d="M20.598,20.391c0.149,0.315,0.315,0.62,0.502,0.912l0.729-0.729l9.875-9.875l0.729-0.729
		c-0.293-0.187-0.598-0.354-0.912-0.502l-0.755,0.754l-9.414,9.415L20.598,20.391z"/>
	<polygon fill="#010101" points="25.741,26.662 26.741,25.662 25.327,25.662 24.315,26.673 15.031,35.958 14.02,36.97 14.02,38.384 
		15.02,37.384 	"/>
	<path fill="#010101" d="M26.117,24.872c0.396,0.094,0.802,0.161,1.218,0.195l0.98-0.979l6.904-6.904l0.979-0.98
		c-0.034-0.416-0.102-0.821-0.195-1.218l-0.854,0.854l-8.178,8.179L26.117,24.872z"/>
	<path fill="#010101" d="M35.809,26.594c-0.33-0.149-0.668-0.283-1.016-0.397L33.989,27L16.472,44.517l-0.805,0.805
		c0.367,0.107,0.738,0.22,1.098,0.316l0.824-0.824l17.464-17.463L35.809,26.594z"/>
	<path fill="#010101" d="M40.906,31.496c-0.155-0.311-0.324-0.612-0.509-0.904l-0.726,0.726L24.873,46.115l-0.913,0.914
		c0.438,0.051,0.864,0.089,1.288,0.126l0.932-0.932l13.979-13.98L40.906,31.496z"/>
	<path fill="#010101" d="M33.999,46.989c0.6-0.081,1.157-0.174,1.688-0.273l1.291-1.292l4.04-4.04V39.97l-5.821,5.822L33.999,46.989
		z"/>
</g>
</svg>
