<?xml version="1.0" encoding="utf-8"?>
<!-- Generator: Adobe Illustrator 15.0.0, SVG Export Plug-In . SVG Version: 6.00 Build 0)  -->
<!DOCTYPE svg PUBLIC "-//W3C//DTD SVG 1.1//EN" "http://www.w3.org/Graphics/SVG/1.1/DTD/svg11.dtd" [
	<!ENTITY ns_extend "http://ns.adobe.com/Extensibility/1.0/">
	<!ENTITY ns_ai "http://ns.adobe.com/AdobeIllustrator/10.0/">
	<!ENTITY ns_graphs "http://ns.adobe.com/Graphs/1.0/">
	<!ENTITY ns_vars "http://ns.adobe.com/Variables/1.0/">
	<!ENTITY ns_imrep "http://ns.adobe.com/ImageReplacement/1.0/">
	<!ENTITY ns_sfw "http://ns.adobe.com/SaveForWeb/1.0/">
	<!ENTITY ns_custom "http://ns.adobe.com/GenericCustomNamespace/1.0/">
	<!ENTITY ns_adobe_xpath "http://ns.adobe.com/XPath/1.0/">
]>
<svg version="1.1" id="Calque_1" xmlns:x="&ns_extend;" xmlns:i="&ns_ai;" xmlns:graph="&ns_graphs;"
	 xmlns="http://www.w3.org/2000/svg" xmlns:xlink="http://www.w3.org/1999/xlink" x="0px" y="0px" width="56px" height="56px"
	 viewBox="0 0 56 56" enable-background="new 0 0 56 56" xml:space="preserve">
<metadata>
	<sfw  xmlns="&ns_sfw;">
		<slices></slices>
		<sliceSourceBounds  x="0" y="-51.824" width="56" height="47.648" bottomLeftOrigin="true"></sliceSourceBounds>
	</sfw>
</metadata>
<g>
	<path d="M20.205,21.531c0.004,0.234,0.013,0.469,0.035,0.697c0.014,0.129,0.039,0.253,0.059,0.38
		c0.041,0.275,0.096,0.547,0.163,0.813c0.229,0.897,0.6,1.738,1.097,2.489c0.187,0.282,0.391,0.55,0.609,0.806
		c0.489,0.573,1.053,1.08,1.681,1.501c0.082,0.055,0.168,0.101,0.252,0.152c0.295,0.183,0.602,0.349,0.92,0.493
		c0.246,0.112,0.498,0.212,0.757,0.3c0.302,0.103,0.608,0.192,0.925,0.259c0.351,0.074,0.709,0.121,1.073,0.149
		c0.145,0.011,0.289,0.019,0.435,0.021c0.068,0.002,0.136,0.011,0.204,0.011c0.281,0,0.559-0.015,0.833-0.042
		c0.625-0.063,1.228-0.203,1.804-0.398c0.688-0.233,1.337-0.55,1.93-0.947c1.942-1.303,3.294-3.413,3.583-5.85
		c0.038-0.321,0.063-0.646,0.063-0.977c0-0.016-0.002-0.031-0.002-0.047c-0.008-1.309-0.326-2.541-0.878-3.637
		c-0.296-0.588-0.657-1.136-1.08-1.633c-1.506-1.77-3.747-2.896-6.253-2.896c-4.536,0-8.216,3.678-8.216,8.214
		C20.198,21.438,20.205,21.483,20.205,21.531z"/>
	<path d="M33.415,30.284c-0.497-0.072-1.001-0.122-1.519-0.122h-0.676h-2.087h-1.011h-0.259h-0.557H26.85h-1.243h-0.679
		c-0.439,0-0.87,0.036-1.295,0.088c-0.075,0.01-0.147,0.023-0.222,0.034c-0.535,0.078-1.061,0.186-1.567,0.341
		c-3.321,1.021-5.946,3.646-6.968,6.969c-0.178,0.576-0.3,1.176-0.376,1.79c-0.053,0.425-0.088,0.854-0.088,1.294v1.137v0.998v6.389
		l0.021,0.134l0.587,0.184c5.534,1.729,10.342,2.306,14.298,2.306c7.729,0,12.209-2.204,12.485-2.345l0.548-0.277h0.06v-6.387
		v-1.002v-1.136C42.413,35.396,38.495,31.024,33.415,30.284z"/>
	<path d="M34.881,13.491c-0.056-0.36-0.094-0.727-0.094-1.102c0-3.978,3.237-7.214,7.216-7.214c3.978,0,7.213,3.235,7.213,7.213
		s-3.235,7.214-7.213,7.214c-1.394,0-2.691-0.403-3.795-1.09c0.123,0.42,0.215,0.853,0.283,1.293
		c1.066,0.506,2.254,0.797,3.512,0.797c4.535,0,8.213-3.678,8.213-8.214s-3.679-8.213-8.213-8.213c-4.536,0-8.216,3.678-8.216,8.214
		c0,0.115,0.013,0.227,0.018,0.341C34.178,12.964,34.541,13.213,34.881,13.491z"/>
	<path d="M45.485,21.162h-6.87c0.002,0.076,0.012,0.149,0.012,0.227c0,0.261-0.02,0.517-0.039,0.773h6.897
		c2.537,0,4.926,0.991,6.726,2.79c1.8,1.8,2.79,4.188,2.789,6.726v7.88l-0.061,0.03c-0.167,0.086-3.914,1.95-10.528,2.206v1.001
		c6.803-0.258,10.724-2.185,10.981-2.315l0.548-0.277H56v-8.524C56.002,25.88,51.284,21.162,45.485,21.162z"/>
	<path d="M6.802,12.081l6.89-6.89l0.981-0.981c-0.222-0.018-0.444-0.034-0.671-0.034c-0.252,0-0.5,0.016-0.746,0.038l-1.25,1.249
		l-4.934,4.934l-1.248,1.249c-0.022,0.245-0.038,0.493-0.038,0.744c0,0.228,0.016,0.45,0.034,0.673L6.802,12.081z"/>
	<path d="M4.781,24.102l2.383-2.382c-1.111,0.375-2.137,0.931-3.047,1.633L2.19,25.278c-0.702,0.911-1.258,1.937-1.634,3.048
		l2.383-2.383L4.781,24.102z"/>
	<path d="M8.759,18.711c0.259,0.215,0.536,0.41,0.821,0.593l0.729-0.729l9.878-9.878l0.729-0.729
		c-0.184-0.285-0.378-0.562-0.594-0.821L19.608,7.86L9.473,17.996L8.759,18.711z"/>
	<path d="M17.71,21.174c-0.075-0.002-0.149-0.012-0.226-0.012h-1.178l-1,1L1,36.47l-1,1v1.414l1-1l15.721-15.722L17.71,21.174z"/>
	<path d="M20.757,28.127c-0.222-0.252-0.432-0.514-0.628-0.786L6.489,40.979l-0.844,0.844c0.396,0.083,0.792,0.165,1.179,0.236
		l0.863-0.864l6.013-6.012l5.733-5.734L20.757,28.127z"/>
	<path d="M6.578,15.891c0.149,0.315,0.316,0.62,0.503,0.912l0.729-0.729l9.875-9.875l0.729-0.729
		c-0.293-0.187-0.598-0.354-0.912-0.502l-0.755,0.754l-9.414,9.415L6.578,15.891z"/>
	<polygon points="11.721,22.162 12.721,21.162 11.307,21.162 10.296,22.173 1.012,31.458 0,32.47 0,33.884 1,32.884 	"/>
	<path d="M12.098,20.372c0.396,0.094,0.802,0.161,1.218,0.195l0.98-0.979l6.904-6.904l0.979-0.98
		c-0.034-0.416-0.102-0.822-0.195-1.218l-0.854,0.854l-8.178,8.179L12.098,20.372z"/>
	<path d="M18.533,23.937L2.452,40.017l-0.805,0.805c0.367,0.107,0.737,0.22,1.098,0.316l0.824-0.824L18.874,25.01
		C18.74,24.661,18.628,24.303,18.533,23.937z"/>
	<path d="M9.94,42.529c0.438,0.051,0.864,0.089,1.288,0.126l0.932-0.932c0.084,0.006,0.168,0.008,0.252,0.014v-0.266v-0.794
		c0-0.221,0.021-0.437,0.033-0.654l-1.592,1.592L9.94,42.529z"/>
</g>
</svg>
